<svg width="216" height="63" viewBox="0 0 216 63" fill="none" xmlns="http://www.w3.org/2000/svg">
<path d="M117.628 36.2051H117.679V36.1541V1.00002V0.948985H117.628H113.06H113.009V1.00002V36.1541V36.2051H113.06H117.628ZM138.578 30.5835L138.578 30.5835C137.194 32.0299 135.491 32.7527 133.464 32.7527C131.437 32.7527 129.717 32.03 128.302 30.5835C126.92 29.1064 126.226 27.0649 126.226 24.4522C126.226 21.8719 126.92 19.8628 128.302 18.4181C129.717 16.939 131.437 16.2003 133.464 16.2003C135.491 16.2003 137.194 16.939 138.577 18.4177L138.578 18.4185C139.992 19.8632 140.701 21.8722 140.701 24.4522C140.701 27.0648 139.991 29.1063 138.578 30.5835ZM124.827 15.5798L124.826 15.5798C122.581 17.921 121.46 20.8798 121.46 24.4522C121.46 28.0569 122.581 31.0479 124.826 33.4215L124.826 33.4217C127.072 35.7633 129.953 36.9334 133.464 36.9334C136.975 36.9334 139.856 35.7633 142.101 33.4217L142.101 33.4215C144.347 31.0479 145.468 28.0569 145.468 24.4522C145.468 20.8797 144.33 17.9209 142.053 15.5798C139.807 13.2061 136.943 12.0196 133.464 12.0196C129.985 12.0196 127.104 13.2061 124.827 15.5798ZM153.836 36.2051H153.887V36.1541V32.9416C155.46 35.5391 157.973 36.8363 161.416 36.8363C164.798 36.8363 167.47 35.6656 169.424 33.322L169.424 33.3217C171.377 30.948 172.352 27.9579 172.352 24.3551C172.352 20.7851 171.409 17.8434 169.522 15.5343C167.632 13.2224 164.976 12.0681 161.562 12.0681C159.708 12.0681 158.096 12.4581 156.726 13.2401C155.458 13.951 154.511 14.8395 153.887 15.9063V1.00002V0.948985H153.836H149.317H149.266V1.00002V36.1541V36.2051H149.317H153.836ZM165.701 18.4153L165.702 18.4162C166.955 19.8611 167.585 21.8387 167.585 24.3551C167.585 26.8714 166.955 28.882 165.702 30.3919C164.448 31.901 162.795 32.6556 160.736 32.6556C158.71 32.6556 157.056 31.9013 155.77 30.3918C154.484 28.8492 153.839 26.8385 153.839 24.3551C153.839 21.8716 154.484 19.8938 155.77 18.4163C157.055 16.9388 158.709 16.2003 160.736 16.2003C162.828 16.2003 164.481 16.9392 165.701 18.4153ZM191.106 17.8357L191.106 17.8362C192.187 18.9155 192.765 20.3094 192.839 22.022H180.167C180.274 20.4392 180.899 19.077 182.044 17.9334L182.044 17.9329C183.2 16.7459 184.676 16.1517 186.478 16.1517C188.476 16.1517 190.017 16.7152 191.106 17.8357ZM193.589 28.0942L193.54 28.0773L193.524 28.1264C193.008 29.6885 192.208 30.856 191.125 31.6334C190.042 32.4108 188.673 32.8013 187.012 32.8013C185.049 32.8013 183.394 32.1425 182.043 30.8251C180.737 29.5194 180.061 27.8505 180.019 25.8142H197.556H197.6L197.607 25.7716C197.672 25.3794 197.705 24.8908 197.705 24.3066C197.705 20.5748 196.714 17.5996 194.728 15.3869C192.74 13.1405 189.972 12.0196 186.429 12.0196C183.369 12.0196 180.732 13.1913 178.521 15.5316C176.308 17.8728 175.202 20.8315 175.202 24.4037C175.202 28.2341 176.34 31.2909 178.619 33.5682L178.619 33.5687C180.929 35.8117 183.728 36.9334 187.012 36.9334C189.646 36.9334 191.892 36.2511 193.748 34.8842L193.749 34.8838C195.603 33.4856 196.873 31.6964 197.557 29.5173L197.571 29.4699L197.525 29.4537L193.589 28.0942ZM215.051 12.5562V12.5143L215.01 12.5061C214.521 12.4083 214.015 12.3595 213.494 12.3595C211.866 12.3595 210.463 12.7337 209.288 13.4843C208.164 14.2014 207.251 15.2601 206.548 16.6578V12.799V12.7479H206.497H202.026H201.975V12.799V36.1541V36.2051H202.026H206.594H206.645V36.1541V24.4522C206.645 22.0634 207.178 20.2812 208.235 19.0966C209.292 17.913 210.879 17.3171 213.008 17.3171C213.653 17.3171 214.315 17.3654 214.993 17.4622L215.051 17.4705V17.4117V12.5562Z" fill="white" stroke="white" stroke-width="0.10206"/>
<path d="M83.0178 32.3401L83.0181 32.3403C86.1908 35.3888 89.9908 36.9137 94.4139 36.9137C98.0418 36.9137 101.111 35.9691 103.616 34.076L103.616 34.0759C104.88 33.1176 105.857 32.2253 106.672 31.1633C107.486 30.1012 108.135 28.8726 108.744 27.244L108.771 27.1719L108.699 27.1453L104.735 25.6887L104.667 25.6637L104.639 25.7302C104.116 26.9405 103.637 27.7992 103.071 28.5322C102.505 29.2651 101.85 29.8753 100.971 30.5866C99.2258 31.9699 97.0418 32.6638 94.4139 32.6638C91.276 32.6638 88.5926 31.5491 86.3595 29.3177C84.1301 27.0899 83.011 23.9856 83.011 19.9946C83.011 16.0034 84.1301 12.9147 86.3591 10.7174L86.3595 10.717C88.5926 8.48555 91.276 7.37086 94.4139 7.37086C97.0427 7.37086 99.2119 8.03491 100.927 9.35784L100.928 9.35835C102.646 10.6534 103.549 11.9155 104.41 14.1649L104.436 14.2345L104.507 14.2098L108.652 12.7531L108.726 12.7271L108.698 12.6538C107.524 9.56113 106.195 7.74283 103.661 5.91246C101.155 4.05006 98.0715 3.12092 94.4139 3.12092C91.6684 3.12092 89.09 3.76119 86.6798 5.04156C84.2667 6.29308 82.2678 8.23064 80.6824 10.8508C79.095 13.4742 78.3025 16.5229 78.3025 19.9946C78.3025 25.1702 79.8722 29.2883 83.0178 32.3401Z" fill="white" stroke="white" stroke-width="0.15309"/>
<path d="M23.29 41.4373C22.6089 41.4373 21.9016 41.175 21.3777 40.6504C20.3299 39.6012 20.3299 37.87 21.3777 36.8208L34.7116 23.4698C35.7595 22.4206 37.4884 22.4206 38.5363 23.4698C39.5841 24.519 39.5841 26.2502 38.5363 27.2994L25.2024 40.6504C24.6784 41.175 23.9711 41.4373 23.29 41.4373Z" fill="white"/>
<path d="M58.2874 40.3092L48.6734 30.6828C48.5424 30.5517 48.4114 30.4468 48.3066 30.3156L44.22 34.1976C44.351 34.3026 44.482 34.4337 44.6129 34.5386L54.3056 44.2437C55.694 45.6339 56.3751 47.4438 56.3751 49.2537C56.3751 51.0635 55.694 52.8996 54.3056 54.2898C51.5288 57.0702 47.0492 57.0702 44.2724 54.2898L34.6584 44.6634C34.606 44.611 34.5536 44.5323 34.475 44.4798L33.8987 43.9027L30.3098 48.2832C30.4146 48.4143 30.5456 48.5454 30.6765 48.6504L40.2906 58.2768C45.2416 63.2342 53.3363 63.2342 58.2874 58.2768C63.2385 53.3718 63.2385 45.2929 58.2874 40.3092Z" fill="white"/>
<path d="M17.8922 27.9018C17.6826 27.7444 17.4992 27.5608 17.3159 27.3772L7.70183 17.7508C6.31343 16.3606 5.63233 14.5507 5.63233 12.7409C5.63233 10.931 6.31343 9.0949 7.70183 7.70471C10.4786 4.92433 14.9582 4.92433 17.735 7.70471L27.349 17.3311C27.4014 17.3836 27.4538 17.4623 27.5324 17.5147L28.2659 18.2492L32.2215 14.2884C31.9596 13.9474 31.6714 13.6327 31.357 13.3179L21.7168 3.71775C16.7657 -1.23972 8.67109 -1.23972 3.72 3.71775C-1.23109 8.67522 -1.23109 16.7803 3.72 21.7377L13.334 31.3642C13.6484 31.6789 13.9627 31.9674 14.3033 32.2297L18.2589 28.269L17.8922 27.9018Z" fill="white"/>
<path opacity="0.5" d="M54.1482 36.164L50.1402 40.151L44.246 34.2492L48.2278 30.236L54.1482 36.164Z" fill="url(#paint0_linear_1196_82)"/>
<path opacity="0.5" d="M40.107 50.1973L36.1252 54.1843L30.231 48.1949L34.2129 44.1746L40.107 50.1973Z" fill="url(#paint1_linear_1196_82)"/>
<path opacity="0.5" d="M7.96451 25.9868L11.9463 21.9736L17.9715 28.0065L13.9635 31.9934L7.96451 25.9868Z" fill="url(#paint2_linear_1196_82)"/>
<path opacity="0.5" d="M21.9524 11.9543L25.9604 7.96733L31.9594 13.9006L27.9776 17.9872L21.9524 11.9543Z" fill="url(#paint3_linear_1196_82)"/>
<path d="M27.3755 44.6357L17.7615 54.2622C14.9847 57.0425 10.5051 57.0425 7.72832 54.2622C6.39231 52.9244 5.65882 51.1408 5.65882 49.226C5.65882 47.3112 6.39231 45.5538 7.72832 44.2161L17.3423 34.5897C17.4209 34.511 17.4995 34.4323 17.6043 34.3536L24.8345 27.1141C24.0224 26.9567 23.2103 26.8781 22.3458 26.8781C18.9403 26.8781 15.7444 28.2158 13.3343 30.6027L3.7203 40.2291C1.31024 42.6423 0.000427246 45.8423 0.000427246 49.2522C0.000427246 52.6621 1.33644 55.8622 3.7203 58.2753C6.20894 60.7672 9.45728 62 12.7056 62C15.9539 62 19.2285 60.7672 21.7171 58.2753L31.3311 48.6489C33.7412 46.2358 35.051 43.0357 35.051 39.6258C35.051 38.7602 34.9724 37.9209 34.8153 37.1077L27.847 44.0849C27.7161 44.2685 27.5589 44.4521 27.3755 44.6357Z" fill="white"/>
<path d="M58.0251 3.90087C53.074 -1.0566 44.9794 -1.0566 40.0283 3.90087L30.4142 13.5273C27.2969 16.6224 26.1443 20.9766 26.9563 25.016L33.8983 18.0913C34.0555 17.8814 34.2389 17.6978 34.4223 17.5142L44.0101 7.88783C45.3985 6.49764 47.206 5.81566 49.0136 5.81566C50.8211 5.81566 52.6549 6.49764 54.0433 7.88783C56.8201 10.6682 56.8201 15.1535 54.0433 17.9339L44.4292 27.5341C44.3768 27.5865 44.2983 27.639 44.2459 27.7177L36.9633 35.0096C37.7754 35.167 38.6137 35.2457 39.4258 35.2457C42.6741 35.2457 45.9486 34.0129 48.4373 31.521L58.0513 21.8946C63.0024 16.9372 63.0024 8.85833 58.0251 3.90087Z" fill="white"/>
<g opacity="0.8">
<mask id="path-12-outside-1_1196_82" maskUnits="userSpaceOnUse" x="79" y="46" width="74" height="17" fill="black">
<rect fill="white" x="79" y="46" width="74" height="17"/>
<path d="M81.982 62H79.562V46.27H90.474V48.36H81.982V53.09H88.846V55.18H81.982V62ZM98.8369 57.666V50.78H100.993V62H98.8369V60.592H98.7929C98.1989 61.45 97.0329 62.308 95.0969 62.308C93.0289 62.308 91.3569 61.12 91.3569 58.546V50.78H93.5129V57.952C93.5129 59.47 94.1729 60.482 95.8009 60.482C97.6489 60.482 98.8369 59.36 98.8369 57.666ZM107.988 60.35C108.362 60.35 108.538 60.328 108.912 60.262V62C108.362 62.11 108.01 62.132 107.548 62.132C105.7 62.132 104.578 61.428 104.578 58.832V52.562H102.95V50.78H104.578V47.172H106.734V50.78H108.89V52.562H106.734V58.898C106.734 60.086 107.064 60.35 107.988 60.35ZM118.516 57.666V50.78H120.672V62H118.516V60.592H118.472C117.878 61.45 116.712 62.308 114.776 62.308C112.708 62.308 111.036 61.12 111.036 58.546V50.78H113.192V57.952C113.192 59.47 113.852 60.482 115.48 60.482C117.328 60.482 118.516 59.36 118.516 57.666ZM128.745 50.516C129.141 50.516 129.449 50.538 129.779 50.582V52.65C129.515 52.606 129.317 52.584 129.053 52.584C127.095 52.584 125.687 54.058 125.687 56.192V62H123.531V50.78H125.687V52.914H125.731C126.325 51.506 127.227 50.516 128.745 50.516ZM141.442 56.148C141.442 56.456 141.442 56.786 141.42 56.962H132.796C132.84 58.832 133.94 60.57 136.162 60.57C138.142 60.57 138.912 59.294 139.11 58.546H141.31C140.716 60.702 139.066 62.33 136.118 62.33C132.554 62.33 130.574 59.8 130.574 56.368C130.574 52.848 132.686 50.428 136.118 50.428C139.528 50.428 141.442 52.672 141.442 56.148ZM132.796 55.268H139.198C139.198 53.508 137.966 52.188 136.052 52.188C134.248 52.188 132.928 53.42 132.796 55.268ZM148.126 62.308C144.716 62.308 143.022 60.548 142.956 58.26H145.134C145.222 59.558 146.014 60.57 148.104 60.57C149.996 60.57 150.502 59.734 150.502 58.92C150.502 57.512 149.006 57.358 147.554 57.05C145.596 56.588 143.352 56.016 143.352 53.684C143.352 51.748 144.914 50.45 147.62 50.45C150.7 50.45 152.174 52.1 152.328 54.036H150.15C149.996 53.178 149.534 52.188 147.664 52.188C146.212 52.188 145.596 52.76 145.596 53.596C145.596 54.762 146.85 54.872 148.434 55.224C150.502 55.708 152.746 56.302 152.746 58.81C152.746 60.988 151.074 62.308 148.126 62.308Z"/>
</mask>
<path d="M81.982 62H79.562V46.27H90.474V48.36H81.982V53.09H88.846V55.18H81.982V62ZM98.8369 57.666V50.78H100.993V62H98.8369V60.592H98.7929C98.1989 61.45 97.0329 62.308 95.0969 62.308C93.0289 62.308 91.3569 61.12 91.3569 58.546V50.78H93.5129V57.952C93.5129 59.47 94.1729 60.482 95.8009 60.482C97.6489 60.482 98.8369 59.36 98.8369 57.666ZM107.988 60.35C108.362 60.35 108.538 60.328 108.912 60.262V62C108.362 62.11 108.01 62.132 107.548 62.132C105.7 62.132 104.578 61.428 104.578 58.832V52.562H102.95V50.78H104.578V47.172H106.734V50.78H108.89V52.562H106.734V58.898C106.734 60.086 107.064 60.35 107.988 60.35ZM118.516 57.666V50.78H120.672V62H118.516V60.592H118.472C117.878 61.45 116.712 62.308 114.776 62.308C112.708 62.308 111.036 61.12 111.036 58.546V50.78H113.192V57.952C113.192 59.47 113.852 60.482 115.48 60.482C117.328 60.482 118.516 59.36 118.516 57.666ZM128.745 50.516C129.141 50.516 129.449 50.538 129.779 50.582V52.65C129.515 52.606 129.317 52.584 129.053 52.584C127.095 52.584 125.687 54.058 125.687 56.192V62H123.531V50.78H125.687V52.914H125.731C126.325 51.506 127.227 50.516 128.745 50.516ZM141.442 56.148C141.442 56.456 141.442 56.786 141.42 56.962H132.796C132.84 58.832 133.94 60.57 136.162 60.57C138.142 60.57 138.912 59.294 139.11 58.546H141.31C140.716 60.702 139.066 62.33 136.118 62.33C132.554 62.33 130.574 59.8 130.574 56.368C130.574 52.848 132.686 50.428 136.118 50.428C139.528 50.428 141.442 52.672 141.442 56.148ZM132.796 55.268H139.198C139.198 53.508 137.966 52.188 136.052 52.188C134.248 52.188 132.928 53.42 132.796 55.268ZM148.126 62.308C144.716 62.308 143.022 60.548 142.956 58.26H145.134C145.222 59.558 146.014 60.57 148.104 60.57C149.996 60.57 150.502 59.734 150.502 58.92C150.502 57.512 149.006 57.358 147.554 57.05C145.596 56.588 143.352 56.016 143.352 53.684C143.352 51.748 144.914 50.45 147.62 50.45C150.7 50.45 152.174 52.1 152.328 54.036H150.15C149.996 53.178 149.534 52.188 147.664 52.188C146.212 52.188 145.596 52.76 145.596 53.596C145.596 54.762 146.85 54.872 148.434 55.224C150.502 55.708 152.746 56.302 152.746 58.81C152.746 60.988 151.074 62.308 148.126 62.308Z" fill="white"/>
<path d="M81.982 62V62.2H82.182V62H81.982ZM79.562 62H79.362V62.2H79.562V62ZM79.562 46.27V46.07H79.362V46.27H79.562ZM90.474 46.27H90.674V46.07H90.474V46.27ZM90.474 48.36V48.56H90.674V48.36H90.474ZM81.982 48.36V48.16H81.782V48.36H81.982ZM81.982 53.09H81.782V53.29H81.982V53.09ZM88.846 53.09H89.046V52.89H88.846V53.09ZM88.846 55.18V55.38H89.046V55.18H88.846ZM81.982 55.18V54.98H81.782V55.18H81.982ZM81.982 61.8H79.562V62.2H81.982V61.8ZM79.762 62V46.27H79.362V62H79.762ZM79.562 46.47H90.474V46.07H79.562V46.47ZM90.274 46.27V48.36H90.674V46.27H90.274ZM90.474 48.16H81.982V48.56H90.474V48.16ZM81.782 48.36V53.09H82.182V48.36H81.782ZM81.982 53.29H88.846V52.89H81.982V53.29ZM88.646 53.09V55.18H89.046V53.09H88.646ZM88.846 54.98H81.982V55.38H88.846V54.98ZM81.782 55.18V62H82.182V55.18H81.782ZM98.8369 50.78V50.58H98.6369V50.78H98.8369ZM100.993 50.78H101.193V50.58H100.993V50.78ZM100.993 62V62.2H101.193V62H100.993ZM98.8369 62H98.6369V62.2H98.8369V62ZM98.8369 60.592H99.0369V60.392H98.8369V60.592ZM98.7929 60.592V60.392H98.6881L98.6285 60.4782L98.7929 60.592ZM91.3569 50.78V50.58H91.1569V50.78H91.3569ZM93.5129 50.78H93.7129V50.58H93.5129V50.78ZM99.0369 57.666V50.78H98.6369V57.666H99.0369ZM98.8369 50.98H100.993V50.58H98.8369V50.98ZM100.793 50.78V62H101.193V50.78H100.793ZM100.993 61.8H98.8369V62.2H100.993V61.8ZM99.0369 62V60.592H98.6369V62H99.0369ZM98.8369 60.392H98.7929V60.792H98.8369V60.392ZM98.6285 60.4782C98.0711 61.2833 96.966 62.108 95.0969 62.108V62.508C97.0998 62.508 98.3267 61.6167 98.9574 60.7058L98.6285 60.4782ZM95.0969 62.108C94.0996 62.108 93.2173 61.8217 92.5864 61.2447C91.9585 60.6704 91.5569 59.7875 91.5569 58.546H91.1569C91.1569 59.8785 91.5913 60.8766 92.3164 61.5398C93.0385 62.2003 94.0262 62.508 95.0969 62.508V62.108ZM91.5569 58.546V50.78H91.1569V58.546H91.5569ZM91.3569 50.98H93.5129V50.58H91.3569V50.98ZM93.3129 50.78V57.952H93.7129V50.78H93.3129ZM93.3129 57.952C93.3129 58.7356 93.4827 59.4215 93.8927 59.9142C94.3083 60.4135 94.9434 60.682 95.8009 60.682V60.282C95.0305 60.282 94.5215 60.0445 94.2001 59.6583C93.8732 59.2655 93.7129 58.6864 93.7129 57.952H93.3129ZM95.8009 60.682C96.7653 60.682 97.5764 60.3887 98.1483 59.8555C98.7215 59.3211 99.0369 58.5618 99.0369 57.666H98.6369C98.6369 58.4642 98.3583 59.1129 97.8755 59.563C97.3915 60.0143 96.6846 60.282 95.8009 60.282V60.682ZM108.912 60.262H109.112V60.0236L108.877 60.065L108.912 60.262ZM108.912 62L108.951 62.1961L109.112 62.164V62H108.912ZM104.578 52.562H104.778V52.362H104.578V52.562ZM102.95 52.562H102.75V52.762H102.95V52.562ZM102.95 50.78V50.58H102.75V50.78H102.95ZM104.578 50.78V50.98H104.778V50.78H104.578ZM104.578 47.172V46.972H104.378V47.172H104.578ZM106.734 47.172H106.934V46.972H106.734V47.172ZM106.734 50.78H106.534V50.98H106.734V50.78ZM108.89 50.78H109.09V50.58H108.89V50.78ZM108.89 52.562V52.762H109.09V52.562H108.89ZM106.734 52.562V52.362H106.534V52.562H106.734ZM107.988 60.55C108.376 60.55 108.564 60.5264 108.946 60.459L108.877 60.065C108.511 60.1296 108.347 60.15 107.988 60.15V60.55ZM108.712 60.262V62H109.112V60.262H108.712ZM108.872 61.8039C108.338 61.9108 107.999 61.932 107.548 61.932V62.332C108.02 62.332 108.386 62.3092 108.951 62.1961L108.872 61.8039ZM107.548 61.932C106.643 61.932 105.965 61.7583 105.51 61.3125C105.054 60.8669 104.778 60.1073 104.778 58.832H104.378C104.378 60.1527 104.662 61.0431 105.23 61.5985C105.797 62.1537 106.605 62.332 107.548 62.332V61.932ZM104.778 58.832V52.562H104.378V58.832H104.778ZM104.578 52.362H102.95V52.762H104.578V52.362ZM103.15 52.562V50.78H102.75V52.562H103.15ZM102.95 50.98H104.578V50.58H102.95V50.98ZM104.778 50.78V47.172H104.378V50.78H104.778ZM104.578 47.372H106.734V46.972H104.578V47.372ZM106.534 47.172V50.78H106.934V47.172H106.534ZM106.734 50.98H108.89V50.58H106.734V50.98ZM108.69 50.78V52.562H109.09V50.78H108.69ZM108.89 52.362H106.734V52.762H108.89V52.362ZM106.534 52.562V58.898H106.934V52.562H106.534ZM106.534 58.898C106.534 59.495 106.613 59.9296 106.867 60.2052C107.128 60.4871 107.521 60.55 107.988 60.55V60.15C107.531 60.15 107.297 60.0809 107.161 59.9338C107.02 59.7804 106.934 59.489 106.934 58.898H106.534ZM118.516 50.78V50.58H118.316V50.78H118.516ZM120.672 50.78H120.872V50.58H120.672V50.78ZM120.672 62V62.2H120.872V62H120.672ZM118.516 62H118.316V62.2H118.516V62ZM118.516 60.592H118.716V60.392H118.516V60.592ZM118.472 60.592V60.392H118.367L118.307 60.4782L118.472 60.592ZM111.036 50.78V50.58H110.836V50.78H111.036ZM113.192 50.78H113.392V50.58H113.192V50.78ZM118.716 57.666V50.78H118.316V57.666H118.716ZM118.516 50.98H120.672V50.58H118.516V50.98ZM120.472 50.78V62H120.872V50.78H120.472ZM120.672 61.8H118.516V62.2H120.672V61.8ZM118.716 62V60.592H118.316V62H118.716ZM118.516 60.392H118.472V60.792H118.516V60.392ZM118.307 60.4782C117.75 61.2833 116.645 62.108 114.776 62.108V62.508C116.779 62.508 118.006 61.6167 118.636 60.7058L118.307 60.4782ZM114.776 62.108C113.778 62.108 112.896 61.8217 112.265 61.2447C111.637 60.6704 111.236 59.7875 111.236 58.546H110.836C110.836 59.8785 111.27 60.8766 111.995 61.5398C112.717 62.2003 113.705 62.508 114.776 62.508V62.108ZM111.236 58.546V50.78H110.836V58.546H111.236ZM111.036 50.98H113.192V50.58H111.036V50.98ZM112.992 50.78V57.952H113.392V50.78H112.992ZM112.992 57.952C112.992 58.7356 113.162 59.4215 113.572 59.9142C113.987 60.4135 114.622 60.682 115.48 60.682V60.282C114.709 60.282 114.2 60.0445 113.879 59.6583C113.552 59.2655 113.392 58.6864 113.392 57.952H112.992ZM115.48 60.682C116.444 60.682 117.255 60.3887 117.827 59.8555C118.4 59.3211 118.716 58.5618 118.716 57.666H118.316C118.316 58.4642 118.037 59.1129 117.554 59.563C117.07 60.0143 116.363 60.282 115.48 60.282V60.682ZM129.779 50.582H129.979V50.4069L129.805 50.3838L129.779 50.582ZM129.779 52.65L129.746 52.8473L129.979 52.8861V52.65H129.779ZM125.687 62V62.2H125.887V62H125.687ZM123.531 62H123.331V62.2H123.531V62ZM123.531 50.78V50.58H123.331V50.78H123.531ZM125.687 50.78H125.887V50.58H125.687V50.78ZM125.687 52.914H125.487V53.114H125.687V52.914ZM125.731 52.914V53.114H125.863L125.915 52.9917L125.731 52.914ZM128.745 50.716C129.132 50.716 129.431 50.7374 129.752 50.7802L129.805 50.3838C129.466 50.3386 129.149 50.316 128.745 50.316V50.716ZM129.579 50.582V52.65H129.979V50.582H129.579ZM129.811 52.4527C129.54 52.4075 129.331 52.384 129.053 52.384V52.784C129.302 52.784 129.489 52.8045 129.746 52.8473L129.811 52.4527ZM129.053 52.384C128.021 52.384 127.126 52.7733 126.49 53.4508C125.854 54.1276 125.487 55.0806 125.487 56.192H125.887C125.887 55.1694 126.223 54.3184 126.781 53.7247C127.338 53.1317 128.126 52.784 129.053 52.784V52.384ZM125.487 56.192V62H125.887V56.192H125.487ZM125.687 61.8H123.531V62.2H125.687V61.8ZM123.731 62V50.78H123.331V62H123.731ZM123.531 50.98H125.687V50.58H123.531V50.98ZM125.487 50.78V52.914H125.887V50.78H125.487ZM125.687 53.114H125.731V52.714H125.687V53.114ZM125.915 52.9917C126.205 52.3035 126.564 51.7343 127.022 51.3382C127.475 50.946 128.034 50.716 128.745 50.716V50.316C127.937 50.316 127.286 50.581 126.76 51.0357C126.239 51.4867 125.85 52.1165 125.546 52.8363L125.915 52.9917ZM141.42 56.962V57.162H141.597L141.619 56.9868L141.42 56.962ZM132.796 56.962V56.762H132.592L132.596 56.9667L132.796 56.962ZM139.11 58.546V58.346H138.956L138.917 58.4948L139.11 58.546ZM141.31 58.546L141.503 58.5991L141.573 58.346H141.31V58.546ZM132.796 55.268L132.597 55.2538L132.582 55.468H132.796V55.268ZM139.198 55.268V55.468H139.398V55.268H139.198ZM141.242 56.148C141.242 56.4631 141.242 56.7769 141.222 56.9372L141.619 56.9868C141.643 56.7951 141.642 56.4489 141.642 56.148H141.242ZM141.42 56.762H132.796V57.162H141.42V56.762ZM132.596 56.9667C132.619 57.937 132.916 58.8856 133.509 59.5955C134.106 60.3103 134.994 60.77 136.162 60.77V60.37C135.109 60.37 134.335 59.9607 133.816 59.339C133.293 58.7124 133.017 57.857 132.996 56.9573L132.596 56.9667ZM136.162 60.77C137.199 60.77 137.934 60.4345 138.437 59.9881C138.936 59.5451 139.196 59.0024 139.304 58.5972L138.917 58.4948C138.826 58.8376 138.602 59.3069 138.172 59.6889C137.745 60.0675 137.106 60.37 136.162 60.37V60.77ZM139.11 58.746H141.31V58.346H139.11V58.746ZM141.118 58.4929C140.83 59.5376 140.289 60.4441 139.473 61.0896C138.658 61.7343 137.554 62.13 136.118 62.13V62.53C137.631 62.53 138.826 62.1117 139.721 61.4034C140.616 60.6959 141.197 59.7104 141.503 58.5991L141.118 58.4929ZM136.118 62.13C134.387 62.13 133.058 61.5173 132.16 60.5034C131.258 59.4864 130.774 58.0468 130.774 56.368H130.374C130.374 58.1212 130.88 59.6626 131.86 60.7686C132.843 61.8777 134.286 62.53 136.118 62.53V62.13ZM130.774 56.368C130.774 54.6474 131.29 53.2141 132.207 52.2131C133.122 51.2141 134.452 50.628 136.118 50.628V50.228C134.353 50.228 132.911 50.8519 131.912 51.9429C130.915 53.0319 130.374 54.5686 130.374 56.368H130.774ZM136.118 50.628C137.777 50.628 139.051 51.1724 139.911 52.119C140.774 53.0683 141.242 54.4453 141.242 56.148H141.642C141.642 54.3747 141.154 52.8917 140.207 51.85C139.258 50.8056 137.869 50.228 136.118 50.228V50.628ZM132.796 55.468H139.198V55.068H132.796V55.468ZM139.398 55.268C139.398 54.3405 139.073 53.518 138.485 52.9269C137.896 52.3353 137.057 51.988 136.052 51.988V52.388C136.962 52.388 137.695 52.7007 138.201 53.2091C138.708 53.718 138.998 54.4355 138.998 55.268H139.398ZM136.052 51.988C134.141 51.988 132.736 53.3033 132.597 55.2538L132.996 55.2822C133.121 53.5367 134.355 52.388 136.052 52.388V51.988ZM142.956 58.26V58.06H142.75L142.756 58.2658L142.956 58.26ZM145.134 58.26L145.333 58.2465L145.32 58.06H145.134V58.26ZM147.554 57.05L147.508 57.2447L147.512 57.2456L147.554 57.05ZM152.328 54.036V54.236H152.544L152.527 54.0201L152.328 54.036ZM150.15 54.036L149.953 54.0713L149.982 54.236H150.15V54.036ZM148.434 55.224L148.479 55.0292L148.477 55.0288L148.434 55.224ZM148.126 62.108C146.454 62.108 145.228 61.6767 144.416 60.9893C143.606 60.304 143.187 59.348 143.155 58.2542L142.756 58.2658C142.79 59.46 143.251 60.528 144.157 61.2947C145.061 62.0593 146.387 62.508 148.126 62.508V62.108ZM142.956 58.46H145.134V58.06H142.956V58.46ZM144.934 58.2735C144.98 58.9593 145.215 59.5924 145.735 60.0517C146.254 60.5095 147.028 60.77 148.104 60.77V60.37C147.089 60.37 146.422 60.1245 146 59.7518C145.58 59.3806 145.375 58.8587 145.333 58.2465L144.934 58.2735ZM148.104 60.77C149.075 60.77 149.729 60.5558 150.142 60.2022C150.56 59.8442 150.702 59.3695 150.702 58.92H150.302C150.302 59.2845 150.19 59.6348 149.882 59.8983C149.569 60.1662 149.024 60.37 148.104 60.37V60.77ZM150.702 58.92C150.702 58.5299 150.597 58.2129 150.405 57.9571C150.215 57.7043 149.951 57.5255 149.655 57.3905C149.073 57.1255 148.302 57.0043 147.595 56.8544L147.512 57.2456C148.257 57.4037 148.96 57.5135 149.489 57.7545C149.748 57.8725 149.949 58.0154 150.085 58.1971C150.219 58.3758 150.302 58.6061 150.302 58.92H150.702ZM147.599 56.8553C146.614 56.6229 145.596 56.3703 144.823 55.8976C144.064 55.4344 143.552 54.7675 143.552 53.684H143.152C143.152 54.9325 143.761 55.7176 144.614 56.2389C145.452 56.7507 146.535 57.0151 147.508 57.2447L147.599 56.8553ZM143.552 53.684C143.552 52.7753 143.915 52.026 144.594 51.4989C145.277 50.9677 146.296 50.65 147.62 50.65V50.25C146.237 50.25 145.122 50.5813 144.348 51.1831C143.569 51.789 143.152 52.6567 143.152 53.684H143.552ZM147.62 50.65C149.124 50.65 150.213 51.0526 150.942 51.6696C151.669 52.286 152.055 53.1309 152.128 54.0519L152.527 54.0201C152.446 53.0051 152.018 52.057 151.2 51.3644C150.383 50.6724 149.195 50.25 147.62 50.25V50.65ZM152.328 53.836H150.15V54.236H152.328V53.836ZM150.346 54.0007C150.266 53.5534 150.101 53.0431 149.689 52.6462C149.273 52.2459 148.634 51.988 147.664 51.988V52.388C148.563 52.388 149.09 52.6251 149.411 52.9343C149.736 53.2469 149.879 53.6606 149.953 54.0713L150.346 54.0007ZM147.664 51.988C146.916 51.988 146.35 52.1345 145.966 52.4176C145.573 52.7076 145.396 53.1232 145.396 53.596H145.796C145.796 53.2328 145.926 52.9444 146.204 52.7394C146.491 52.5275 146.959 52.388 147.664 52.388V51.988ZM145.396 53.596C145.396 53.9264 145.486 54.1972 145.659 54.4169C145.83 54.6326 146.07 54.7835 146.342 54.8993C146.876 55.1261 147.619 55.2478 148.39 55.4192L148.477 55.0288C147.664 54.8482 146.988 54.7389 146.499 54.5312C146.26 54.4298 146.087 54.3125 145.973 54.1686C145.862 54.0288 145.796 53.8486 145.796 53.596H145.396ZM148.388 55.4187C149.428 55.6621 150.471 55.9255 151.257 56.4266C151.647 56.6748 151.967 56.9778 152.19 57.3605C152.413 57.7423 152.546 58.2141 152.546 58.81H152.946C152.946 58.1519 152.798 57.6089 152.535 57.1589C152.273 56.7097 151.903 56.3637 151.473 56.0894C150.62 55.5455 149.507 55.2699 148.479 55.0293L148.388 55.4187ZM152.546 58.81C152.546 59.8422 152.152 60.6557 151.419 61.217C150.68 61.7835 149.573 62.108 148.126 62.108V62.508C149.626 62.508 150.829 62.1725 151.663 61.5345C152.503 60.8913 152.946 59.9558 152.946 58.81H152.546Z" fill="white" mask="url(#path-12-outside-1_1196_82)"/>
</g>
<path opacity="0.7" d="M159 56L213.5 56.5" stroke="white" stroke-width="2"/>
<defs>
<linearGradient id="paint0_linear_1196_82" x1="52.1319" y1="38.1603" x2="46.2196" y2="32.2555" gradientUnits="userSpaceOnUse">
<stop stop-color="white" stop-opacity="0"/>
<stop offset="0.8" stop-color="#2864FF" stop-opacity="0.5"/>
</linearGradient>
<linearGradient id="paint1_linear_1196_82" x1="38.1229" y1="52.1877" x2="32.2105" y2="46.2828" gradientUnits="userSpaceOnUse">
<stop stop-color="white" stop-opacity="0"/>
<stop offset="0.8" stop-color="#2864FF" stop-opacity="0.5"/>
</linearGradient>
<linearGradient id="paint2_linear_1196_82" x1="10.0299" y1="23.9952" x2="16.0435" y2="30.0009" gradientUnits="userSpaceOnUse">
<stop stop-color="white" stop-opacity="0"/>
<stop offset="0.8" stop-color="#2864FF" stop-opacity="0.5"/>
</linearGradient>
<linearGradient id="paint3_linear_1196_82" x1="23.9145" y1="9.95505" x2="29.9284" y2="15.961" gradientUnits="userSpaceOnUse">
<stop stop-color="white" stop-opacity="0"/>
<stop offset="0.8" stop-color="#2864FF" stop-opacity="0.5"/>
</linearGradient>
</defs>
</svg>
